<?xml version="1.0" encoding="UTF-8"?>
<svg xmlns="http://www.w3.org/2000/svg" xmlns:xlink="http://www.w3.org/1999/xlink" viewBox="0 0 500 500">
  <defs>
    <style>
      .cls-1 {
        fill: #231f20;
        mix-blend-mode: darken;
        opacity: .25;
      }

      .cls-2 {
        fill: url(#linear-gradient);
      }

      .cls-3 {
        fill: none;
        isolation: isolate;
      }

      .cls-4 {
        fill: url(#linear-gradient-3);
      }

      .cls-5 {
        fill: url(#linear-gradient-4);
      }

      .cls-6 {
        fill: url(#linear-gradient-2);
      }
    </style>
    <linearGradient id="linear-gradient" x1="250" y1="29.93" x2="250" y2="371.11" gradientUnits="userSpaceOnUse">
      <stop offset="0" stop-color="#b956ff"/>
      <stop offset="1" stop-color="#6e33ff"/>
    </linearGradient>
    <linearGradient id="linear-gradient-2" x1="346.47" y1="175.15" x2="186.38" y2="335.23" xlink:href="#linear-gradient"/>
    <linearGradient id="linear-gradient-3" x1="189.24" y1="234.7" x2="225.56" y2="234.7" xlink:href="#linear-gradient"/>
    <linearGradient id="linear-gradient-4" x1="189.24" y1="175.44" x2="295.3" y2="175.44" xlink:href="#linear-gradient"/>
  </defs>
  <g class="cls-3">
    <g id="Layer_1" data-name="Layer 1">
      <g>
        <path class="cls-2" d="m423.25,101.16s-20.96-6.17-80.77-21.58c-63.31-16.32-92.48-22.2-92.48-22.2,0,0-29.17,5.87-92.49,22.2-59.81,15.41-80.77,21.58-80.77,21.58,0,0-9.86,60.42,17.26,172.02,21.9,90.09,93.72,147.97,155.99,169.43,62.27-21.46,134.08-79.34,155.98-169.43,27.13-111.59,17.26-172.02,17.26-172.02Zm-15.22,45.04c-.57,16.22-2.13,33.65-4.62,51.83-3.11,22.73-7.72,46.69-13.68,71.2-4.85,19.97-12.61,39.14-23.04,56.97-9.61,16.42-21.51,31.76-35.38,45.6-23.34,23.29-52.02,41.97-81.32,53.04-29.3-11.07-57.99-29.75-81.33-53.04-13.86-13.84-25.77-29.18-35.38-45.6-10.43-17.83-18.18-36.99-23.04-56.97-5.96-24.51-10.56-48.47-13.68-71.2-2.49-18.18-4.04-35.61-4.62-51.83-.49-14.15-.15-24.9.31-32.04,11.68-3.23,33.59-9.15,69.42-18.39,50.27-12.95,79.06-19.33,88.31-21.3,9.25,1.98,38.04,8.35,88.31,21.3,35.84,9.24,57.75,15.16,69.42,18.39.46,7.14.81,17.89.31,32.04Z"/>
        <g>
          <path class="cls-6" d="m189.24,356.15v-74.67l141.49-75.86h-54.63l41.76-39.88c4.45,4.45,8.14,9.54,11,15.24,4.38,8.7,6.54,17.81,6.54,27.49,0,21.57-7.66,38.63-23.03,51.22-15.24,12.6-36.05,18.93-62.29,18.93-3.1,0-6.19-.07-6.19-.07-1.46-.06-2.75-.13-3.83-.21-16.93,25.94-33.87,51.87-50.8,77.81Z"/>
          <path class="cls-1" d="m287.98,205.61h-11.89l41.76-39.88c-9.96,13.29-19.91,26.58-29.87,39.88Z"/>
          <polygon class="cls-4" points="225.56 217.37 189.24 252.03 189.24 217.37 225.56 217.37"/>
          <path class="cls-5" d="m295.3,150.7l-106.06,56.86v-64.24h54.77c16.84,0,30.21,1.25,40.09,3.69,3.89.97,7.66,2.23,11.2,3.69Z"/>
          <path class="cls-1" d="m295.3,150.7l-106.06,56.86v-11.62c17.68-7.54,35.35-15.08,53.03-22.62,17.68-7.54,35.35-15.08,53.03-22.62Z"/>
        </g>
      </g>
    </g>
  </g>
</svg>