<?xml version="1.0" encoding="UTF-8"?>
<svg xmlns="http://www.w3.org/2000/svg" viewBox="0 0 1000 250">
  <defs>
    <style>
      .cls-1 {
        mix-blend-mode: darken;
        opacity: .25;
      }

      .cls-1, .cls-2 {
        fill: #231f20;
      }

      .cls-3 {
        fill: none;
        isolation: isolate;
      }
    </style>
  </defs>
  <g class="cls-3">
    <g id="Layer_1" data-name="Layer 1">
      <g>
        <g>
          <path class="cls-2" d="m226.5,51.7s-10.32-3.04-39.78-10.63c-31.18-8.04-45.54-10.93-45.54-10.93,0,0-14.37,2.89-45.55,10.93-29.45,7.59-39.78,10.63-39.78,10.63,0,0-4.86,29.76,8.5,84.71,10.79,44.37,46.15,72.87,76.82,83.44,30.67-10.57,66.03-39.07,76.82-83.44,13.36-54.96,8.5-84.71,8.5-84.71Zm-7.49,22.18c-.28,7.99-1.05,16.57-2.27,25.52-1.53,11.19-3.8,22.99-6.73,35.07-2.39,9.84-6.21,19.27-11.34,28.06-4.73,8.08-10.6,15.64-17.43,22.46-11.49,11.47-25.62,20.67-40.05,26.12-14.43-5.45-28.56-14.65-40.05-26.12-6.83-6.81-12.69-14.37-17.42-22.46-5.14-8.78-8.95-18.22-11.34-28.06-2.94-12.07-5.2-23.87-6.74-35.07-1.23-8.95-1.99-17.54-2.27-25.52-.24-6.97-.07-12.26.15-15.78,5.75-1.59,16.54-4.51,34.19-9.06,24.75-6.38,38.94-9.52,43.49-10.49,4.55.97,18.73,4.11,43.49,10.49,17.65,4.55,28.44,7.47,34.19,9.06.23,3.52.4,8.81.15,15.78Z"/>
          <g>
            <path class="cls-2" d="m111.26,177.27v-36.77l69.68-37.36h-26.9l20.56-19.64c2.19,2.19,4.01,4.7,5.42,7.51,2.16,4.28,3.22,8.77,3.22,13.54,0,10.62-3.77,19.02-11.34,25.23-7.51,6.2-17.75,9.32-30.68,9.32-1.53,0-3.05-.03-3.05-.03-.72-.03-1.36-.07-1.89-.1-8.34,12.77-16.68,25.55-25.02,38.32Z"/>
            <path class="cls-1" d="m159.89,103.14h-5.86l20.56-19.64c-4.9,6.55-9.81,13.09-14.71,19.64Z"/>
            <polygon class="cls-2" points="129.15 108.93 111.26 126 111.26 108.93 129.15 108.93"/>
            <path class="cls-2" d="m163.49,76.1l-52.23,28v-31.63h26.97c8.3,0,14.88.62,19.74,1.82,1.92.48,3.77,1.1,5.52,1.82Z"/>
            <path class="cls-1" d="m163.49,76.1l-52.23,28v-5.72c8.71-3.71,17.41-7.43,26.12-11.14,8.71-3.71,17.41-7.43,26.12-11.14Z"/>
          </g>
        </g>
        <g>
          <path class="cls-2" d="m308.43,167.45h-12.83v-70.86h12.83v7.33h1.83c1.36-2.78,3.32-4.94,5.9-6.46,2.58-1.53,5.87-2.29,9.88-2.29,2.99,0,5.82.58,8.5,1.73,2.68,1.16,5.02,2.83,7.03,5.04,2,2.21,3.6,4.9,4.78,8.09,1.19,3.19,1.78,6.82,1.78,10.89v1.83c0,4.14-.58,7.81-1.73,11-1.16,3.19-2.72,5.89-4.68,8.09-1.97,2.21-4.29,3.87-6.97,4.99-2.68,1.12-5.58,1.68-8.7,1.68-2.31,0-4.31-.24-6.01-.71-1.7-.48-3.17-1.12-4.43-1.93-1.26-.81-2.31-1.75-3.16-2.8-.85-1.05-1.58-2.15-2.19-3.31h-1.83v27.69Zm13.44-31.15c4,0,7.24-1.24,9.72-3.72,2.48-2.48,3.72-5.85,3.72-10.13v-1.22c0-4.28-1.24-7.65-3.72-10.13-2.48-2.48-5.72-3.72-9.72-3.72s-7.25,1.27-9.72,3.82c-2.48,2.55-3.72,5.89-3.72,10.03v1.22c0,4.14,1.24,7.48,3.72,10.03,2.48,2.55,5.72,3.82,9.72,3.82Z"/>
          <path class="cls-2" d="m358.11,96.59h21.38v7.33h1.83c.95-2.78,2.56-4.94,4.84-6.46,2.27-1.53,5-2.29,8.2-2.29,5.02,0,9.06,1.58,12.12,4.73,3.05,3.16,4.58,7.96,4.58,14.41v2.24l-13.24,1.22v-1.43c0-2.78-.71-5-2.14-6.67-1.43-1.66-3.56-2.49-6.41-2.49s-5.09.98-6.72,2.95-2.44,4.78-2.44,8.45v16.29h11.61v12.22h-34.82v-12.22h10.38v-26.06h-9.16v-12.22Z"/>
          <path class="cls-2" d="m472.35,122.45c0,4.21-.71,7.93-2.14,11.15-1.43,3.22-3.36,5.94-5.8,8.15-2.44,2.21-5.24,3.89-8.4,5.04-3.16,1.15-6.47,1.73-9.93,1.73s-6.77-.58-9.93-1.73-5.96-2.83-8.4-5.04c-2.44-2.21-4.38-4.92-5.8-8.15-1.43-3.22-2.14-6.94-2.14-11.15v-1.22c0-4.14.71-7.82,2.14-11.05,1.43-3.22,3.36-5.96,5.8-8.2,2.44-2.24,5.24-3.94,8.4-5.09,3.16-1.15,6.47-1.73,9.93-1.73s6.77.58,9.93,1.73c3.16,1.16,5.96,2.85,8.4,5.09,2.44,2.24,4.38,4.97,5.8,8.2,1.43,3.22,2.14,6.91,2.14,11.05v1.22Zm-26.27,13.85c1.83,0,3.56-.31,5.19-.92,1.63-.61,3.05-1.49,4.28-2.65,1.22-1.15,2.19-2.56,2.9-4.22.71-1.66,1.07-3.55,1.07-5.65v-2.04c0-2.1-.36-3.99-1.07-5.65-.71-1.66-1.68-3.07-2.9-4.22-1.22-1.15-2.65-2.04-4.28-2.65-1.63-.61-3.36-.92-5.19-.92s-3.56.3-5.19.92c-1.63.61-3.05,1.49-4.28,2.65-1.22,1.15-2.19,2.56-2.9,4.22-.71,1.66-1.07,3.55-1.07,5.65v2.04c0,2.11.36,3.99,1.07,5.65s1.68,3.07,2.9,4.22c1.22,1.16,2.65,2.04,4.28,2.65,1.63.61,3.36.92,5.19.92Z"/>
          <path class="cls-2" d="m518.67,96.59h14.15l-12.22,23.72v1.83l12.93,24.94h-14.76l-9.47-19.75h-1.83l-9.47,19.75h-14.76l12.93-24.94v-1.83l-12.32-23.72h14.25l9.37,18.53h1.83l9.37-18.53Z"/>
          <path class="cls-2" d="m548.4,134.87h17.1v-26.06h-15.88v-12.22h28.71v38.28h14.66v12.22h-44.59v-12.22Zm33.09-53.25c0,1.36-.25,2.63-.76,3.82-.51,1.19-1.21,2.21-2.09,3.05-.88.85-1.92,1.53-3.11,2.04-1.19.51-2.43.76-3.72.76-1.36,0-2.61-.25-3.77-.76-1.15-.51-2.17-1.19-3.05-2.04-.88-.85-1.58-1.87-2.09-3.05-.51-1.19-.76-2.46-.76-3.82s.25-2.63.76-3.82c.51-1.19,1.21-2.2,2.09-3.05.88-.85,1.9-1.53,3.05-2.04,1.15-.51,2.41-.76,3.77-.76,1.29,0,2.53.25,3.72.76,1.19.51,2.22,1.19,3.11,2.04.88.85,1.58,1.87,2.09,3.05.51,1.19.76,2.46.76,3.82Z"/>
          <path class="cls-2" d="m621.09,126.01c.07,1.49.42,2.87,1.07,4.12.64,1.26,1.53,2.34,2.65,3.26,1.12.92,2.41,1.63,3.87,2.14,1.46.51,3,.76,4.63.76,3.19,0,5.63-.56,7.33-1.68,1.7-1.12,2.92-2.46,3.67-4.02l11,6.11c-.61,1.29-1.46,2.63-2.55,4.02-1.09,1.39-2.49,2.67-4.22,3.82-1.73,1.15-3.84,2.1-6.31,2.85-2.48.75-5.38,1.12-8.71,1.12-3.8,0-7.26-.61-10.38-1.83-3.12-1.22-5.82-2.99-8.09-5.29-2.27-2.31-4.04-5.12-5.29-8.45-1.26-3.33-1.88-7.09-1.88-11.3v-.61c0-3.87.66-7.4,1.99-10.59,1.32-3.19,3.14-5.9,5.45-8.14,2.31-2.24,5-3.99,8.09-5.24,3.09-1.26,6.4-1.88,9.93-1.88,4.34,0,8.08.76,11.2,2.29,3.12,1.53,5.7,3.46,7.74,5.8s3.53,4.92,4.48,7.74c.95,2.82,1.43,5.55,1.43,8.2v6.82h-37.06Zm12.12-19.24c-3.26,0-5.9.83-7.94,2.49-2.04,1.66-3.36,3.58-3.97,5.75h23.82c-.41-2.38-1.68-4.34-3.82-5.91-2.14-1.56-4.84-2.34-8.09-2.34Z"/>
          <path class="cls-2" d="m688.18,110.84c0,1.63.85,2.8,2.54,3.51,1.7.71,4.79,1.31,9.27,1.78,5.16.54,9.37,2.09,12.62,4.63,3.26,2.55,4.89,6.09,4.89,10.64v.61c0,5.02-1.83,9.03-5.5,12.01-3.67,2.99-8.82,4.48-15.48,4.48-3.94,0-7.3-.51-10.08-1.53-2.78-1.02-5.09-2.29-6.92-3.82-1.83-1.53-3.24-3.22-4.22-5.09-.98-1.87-1.65-3.68-1.99-5.45l11.81-3.87c.54,2.17,1.68,4.07,3.41,5.7s4.39,2.44,7.99,2.44c3.19,0,5.38-.49,6.57-1.48,1.19-.98,1.78-2.05,1.78-3.21,0-.68-.15-1.31-.46-1.88-.31-.58-.87-1.12-1.68-1.63s-1.92-.93-3.31-1.27c-1.39-.34-3.14-.61-5.24-.81-5.7-.47-10.23-1.95-13.59-4.43-3.36-2.48-5.04-6.12-5.04-10.95v-.61c0-2.51.54-4.72,1.63-6.62,1.08-1.9,2.51-3.51,4.28-4.84,1.76-1.32,3.8-2.32,6.11-3,2.31-.68,4.68-1.02,7.13-1.02,3.19,0,5.96.39,8.3,1.17,2.34.78,4.33,1.8,5.96,3.05,1.63,1.26,2.95,2.65,3.97,4.17s1.8,3,2.34,4.43l-11.61,4.68c-.61-1.83-1.66-3.27-3.16-4.33-1.49-1.05-3.43-1.58-5.8-1.58-2.17,0-3.8.39-4.89,1.17-1.09.78-1.63,1.75-1.63,2.9Z"/>
          <path class="cls-2" d="m767.29,138.84c0,1.36-.25,2.63-.76,3.82-.51,1.19-1.21,2.21-2.09,3.05-.88.85-1.92,1.53-3.11,2.04-1.19.51-2.43.76-3.72.76-1.36,0-2.61-.25-3.77-.76-1.16-.51-2.17-1.19-3.05-2.04-.88-.85-1.58-1.87-2.09-3.05-.51-1.19-.76-2.46-.76-3.82s.25-2.63.76-3.82c.51-1.19,1.2-2.21,2.09-3.05.88-.85,1.9-1.53,3.05-2.04,1.15-.51,2.41-.76,3.77-.76,1.29,0,2.53.25,3.72.76,1.19.51,2.22,1.19,3.11,2.04.88.85,1.58,1.87,2.09,3.05.51,1.19.76,2.46.76,3.82Z"/>
          <path class="cls-2" d="m845.99,128.56c-1.15,5.97-3.89,10.79-8.2,14.46-4.31,3.67-10.06,5.5-17.26,5.5-3.73,0-7.21-.58-10.44-1.73-3.22-1.15-6.02-2.82-8.4-4.99-2.38-2.17-4.24-4.85-5.6-8.04-1.36-3.19-2.04-6.82-2.04-10.89v-1.22c0-4.07.68-7.74,2.04-11,1.36-3.26,3.24-6.04,5.65-8.35,2.41-2.31,5.23-4.07,8.45-5.29,3.22-1.22,6.67-1.83,10.33-1.83,7.06,0,12.78,1.83,17.16,5.5s7.14,8.49,8.3,14.46l-12.62,3.26c-.41-2.99-1.7-5.56-3.87-7.74-2.17-2.17-5.23-3.26-9.16-3.26-1.83,0-3.56.34-5.19,1.02-1.63.68-3.05,1.65-4.28,2.9-1.22,1.26-2.19,2.78-2.9,4.58-.71,1.8-1.07,3.82-1.07,6.06v.61c0,2.24.36,4.22,1.07,5.96.71,1.73,1.68,3.17,2.9,4.33,1.22,1.16,2.65,2.02,4.28,2.6,1.63.58,3.36.87,5.19.87,3.94,0,6.94-.98,9.01-2.95,2.07-1.97,3.41-4.62,4.02-7.94l12.62,3.16Z"/>
          <path class="cls-2" d="m892.52,96.59h14.15l-12.22,23.72v1.83l12.93,24.94h-14.76l-9.47-19.75h-1.83l-9.47,19.75h-14.76l12.93-24.94v-1.83l-12.32-23.72h14.25l9.37,18.53h1.83l9.37-18.53Z"/>
        </g>
      </g>
    </g>
  </g>
</svg>